<svg xmlns="http://www.w3.org/2000/svg" viewBox="0 0 512 512" width="512" height="512">
  <defs>
    <linearGradient id="bgGrad" x1="0%" y1="0%" x2="0%" y2="100%">
      <stop offset="0%" stop-color="#1a1a2e"/>
      <stop offset="100%" stop-color="#0f0f15"/>
    </linearGradient>

    <linearGradient id="goldGrad" x1="0%" y1="0%" x2="100%" y2="100%">
      <stop offset="0%" stop-color="#aa802c"/>
      <stop offset="50%" stop-color="#d4af37"/>
      <stop offset="100%" stop-color="#f3e5ab"/>
    </linearGradient>

    <linearGradient id="lightRay" x1="0%" y1="0%" x2="0%" y2="100%">
      <stop offset="0%" stop-color="#ffffff" stop-opacity="0.25"/>
      <stop offset="40%" stop-color="#ffffff" stop-opacity="0.05"/>
      <stop offset="100%" stop-color="#000000" stop-opacity="0.6"/>
    </linearGradient>

    <linearGradient id="sandGold" x1="0%" y1="0%" x2="0%" y2="100%">
      <stop offset="0%" stop-color="#e6cfac"/>
      <stop offset="30%" stop-color="#d4af37"/>
      <stop offset="100%" stop-color="#7a5f13"/>
    </linearGradient>

    <linearGradient id="sandWhite" x1="0%" y1="0%" x2="0%" y2="100%">
      <stop offset="0%" stop-color="#ffffff"/>
      <stop offset="50%" stop-color="#cbd5e1"/>
      <stop offset="100%" stop-color="#64748b"/>
    </linearGradient>

    <linearGradient id="sandBrown" x1="0%" y1="0%" x2="0%" y2="100%">
      <stop offset="0%" stop-color="#966a38"/>
      <stop offset="100%" stop-color="#3e2510"/>
    </linearGradient>

    <linearGradient id="bubbleGrad" x1="0%" y1="0%" x2="100%" y2="100%">
      <stop offset="0%" stop-color="#ffffff" stop-opacity="0.6"/>
      <stop offset="40%" stop-color="#ffffff" stop-opacity="0.1"/>
      <stop offset="100%" stop-color="#d4af37" stop-opacity="0.3"/>
    </linearGradient>

    <clipPath id="iconClip">
      <rect x="16" y="16" width="480" height="480" rx="96" ry="96" />
    </clipPath>
  </defs>

  <rect x="16" y="16" width="480" height="480" rx="96" ry="96" fill="url(#bgGrad)" stroke="url(#goldGrad)" stroke-width="6" stroke-alignment="inner"/>

  <g clip-path="url(#iconClip)">
    <rect x="0" y="0" width="512" height="512" fill="url(#lightRay)"/>

    <path d="M 16 512 L 16 340 Q 140 280 260 360 T 496 300 L 496 512 Z" fill="url(#sandBrown)"/>

    <path d="M 16 512 L 16 390 Q 120 350 220 420 T 496 360 L 496 512 Z" fill="url(#sandWhite)" opacity="0.9"/>

    <path d="M 16 512 L 16 440 Q 160 410 280 460 T 496 410 L 496 512 Z" fill="url(#sandGold)"/>

    <circle cx="200" cy="220" r="36" fill="url(#bubbleGrad)" stroke="#ffffff" stroke-width="1.5" stroke-opacity="0.4"/>
    <circle cx="188" cy="208" r="8" fill="#ffffff" opacity="0.4"/> <circle cx="340" cy="150" r="24" fill="url(#bubbleGrad)" stroke="#ffffff" stroke-width="1.2" stroke-opacity="0.4"/>
    <circle cx="332" cy="142" r="5" fill="#ffffff" opacity="0.4"/>

    <circle cx="120" cy="300" r="16" fill="url(#bubbleGrad)" stroke="#ffffff" stroke-width="1" stroke-opacity="0.3"/>
    
    <circle cx="400" cy="320" r="20" fill="url(#bubbleGrad)" stroke="#ffffff" stroke-width="1" stroke-opacity="0.3"/>

    <circle cx="100" cy="120" r="3" fill="#f3e5ab" opacity="0.6"/>
    <circle cx="420" cy="220" r="2.5" fill="#d4af37" opacity="0.5"/>
    <circle cx="280" cy="80" r="4" fill="#ffffff" opacity="0.7"/>
    <circle cx="250" cy="280" r="2" fill="#d4af37" opacity="0.4"/>
    <circle cx="70" cy="240" r="3.5" fill="#e6cfac" opacity="0.5"/>
  </g>

  <rect x="32" y="32" width="448" height="448" rx="80" ry="80" fill="none" stroke="url(#goldGrad)" stroke-width="1.5" opacity="0.6"/>
</svg>
